<svg xmlns="http://www.w3.org/2000/svg" width="256" height="256"><path fill-opacity=".016" d="M0 128.004v128.004l128.25-.254 128.25-.254.254-127.75L257.008 0H0v128.004m.485.496c0 70.4.119 99.053.265 63.672.146-35.38.146-92.98 0-128C.604 29.153.485 58.1.485 128.5" fill="#1976D2" fill-rule="evenodd"/><path fill-opacity=".295" d="M124.919.407c-.319.323-5.494 1.092-11.5 1.708-25.947 2.662-54.488 16.866-75.003 37.326-17.604 17.557-27.99 35.873-34.165 60.254-2.513 9.924-2.734 12.355-2.713 29.805.022 17.186.277 20.006 2.672 29.537 14.724 58.578 69.23 99.462 128.79 96.605 44.953-2.156 82.792-25.975 106.399-66.976 6.387-11.093 11.485-26.6 13.65-41.523 1.729-11.919.706-36.231-1.983-47.143-12.231-49.616-51.73-86.64-103.976-97.459C139.091.884 125.719-.403 124.919.407m-15.134 16.144C68.695 22.949 33.059 52.798 19.706 92c-6.144 18.039-7.809 40.205-4.362 58.071C25.828 204.408 72.4 242.994 127.5 242.994c44.079 0 82.771-24.055 102.341-63.626 12.222-24.711 14.924-53.1 7.64-80.261-14.876-55.47-70.538-91.456-127.696-82.556m8.715 1.09c-41.462 4.376-74.998 27.757-92.432 64.443C2.612 131.439 19.026 191.183 64.5 221.98c19.582 13.262 38.958 19.152 63 19.152 25.684 0 47.566-7.286 67.944-22.622 30.459-22.924 47.843-62.732 43.654-99.96-4.965-44.127-33.293-80.085-74.748-94.883-12.547-4.478-33.912-7.286-45.85-6.026m-2.428 40.912c-10.528 2.283-19.947 7.384-28.317 15.335C76.362 84.71 71 96.484 71 110.682V118l-7.75.024c-13.959.043-19.26 2.586-21.317 10.226-1.336 4.959.047 9.398 4.153 13.335 2.921 2.801 3.466 2.928 13.977 3.253l10.937.339.015 25.661c.01 18.518.362 26.35 1.264 28.132 5 9.881 22.9 9.2 26.415-1.005.792-2.3 1.212-11.783 1.25-28.215L100 145h53.766c50.161 0 53.994-.122 57.172-1.827 8.846-4.744 9.033-17.213.343-22.909-2.472-1.621-7.09-1.788-56.986-2.055l-54.295-.29v-6.263c0-10.606 5.622-19.206 16.278-24.9 4.036-2.157 5.521-2.278 33.722-2.756 31.297-.53 31.999-.64 35.922-5.629 2.886-3.668 2.85-11.478-.071-15.58-3.882-5.452-6.075-5.799-36.069-5.712-19.321.057-29.158.487-33.71 1.474" fill="#1976D2" fill-rule="evenodd"/><path fill-opacity=".237" d="M115 2.656c-6.875.811-16.778 2.781-22.006 4.377C84.149 9.734 65 18.247 65 19.479c0 .301 3.193-1.062 7.096-3.027 9.201-4.634 22.601-8.982 33.626-10.91 11.157-1.952 32.485-1.983 43.487-.065 25.841 4.507 50.201 17.491 69.246 36.911 5.042 5.141 6.516 6.326 4.026 3.236-2.161-2.683-7.306-7.822-11.433-11.422-16.158-14.092-34.053-23.359-56.125-29.064C140.385 1.38 130.843.787 115 2.656M61.441 21.555c-1.864 1.494-1.852 1.512.309.465 1.237-.6 2.25-1.3 2.25-1.555 0-.765-.519-.544-2.559 1.09M50.405 29.25 48.5 31.5l2.25-1.905C52.864 27.805 53.455 27 52.655 27c-.19 0-1.202 1.012-2.25 2.25m-5.481 4.5L42.5 36.5l2.75-2.424C47.82 31.81 48.459 31 47.674 31c-.179 0-1.416 1.237-2.75 2.75m-13.487 13.5L28.5 50.5l3.25-2.937c1.788-1.615 3.25-3.078 3.25-3.25 0-.773-.825-.092-3.563 2.937m-4.565 5.5c-1.243 1.586-1.208 1.621.378.378C28.916 51.821 29.445 51 28.622 51c-.207 0-.995.788-1.75 1.75M226 51.378c0 .207.787.995 1.75 1.75 1.586 1.243 1.621 1.208.378-.378-1.307-1.666-2.128-2.195-2.128-1.372m3 4c0 .207.787.995 1.75 1.75 1.586 1.243 1.621 1.208.378-.378-1.307-1.666-2.128-2.195-2.128-1.372M233 61c.589 1.1 1.295 2 1.57 2 .275 0 .019-.9-.57-2s-1.295-2-1.57-2c-.275 0-.019.9.57 2M18 66c-.589 1.1-.845 2-.57 2s.981-.9 1.57-2c.589-1.1.845-2 .57-2s-.981.9-1.57 2m218 0c.589 1.1 1.295 2 1.57 2 .275 0 .019-.9-.57-2s-1.295-2-1.57-2c-.275 0-.019.9.57 2M14.459 72.067c-.363.586-.445 1.281-.183 1.543s.743-.218 1.069-1.067c.676-1.762.1-2.072-.886-.476M240.08 73c1.458 3.061 1.92 3.628 1.92 2.358 0-.537-.7-1.849-1.555-2.917-1.467-1.83-1.487-1.798-.365.559M81.307 78.25c-1.123 1.237-2.869 3.549-3.879 5.137-1.01 1.587-2.007 2.375-2.216 1.75-.566-1.698-46.355-1.59-48.075.113-1.016 1.006-1.055.7-.199-1.567.585-1.55 1.538-3.8 2.118-5 1.02-2.111 1.003-2.119-.503-.239-2.013 2.512-7.169 15.904-9.829 25.525-1.752 6.339-2.082 10.381-2.085 25.531-.004 16.329.242 18.913 2.643 27.837 3.066 11.394 10.492 27.359 17.022 36.594 6.209 8.783 18.626 21.079 27.431 27.166 9.923 6.86 24.217 13.468 35.988 16.636 8.852 2.383 11.48 2.632 27.777 2.632s18.925-.249 27.777-2.632c24.496-6.594 46.605-21.474 61.916-41.672 6.943-9.16 15.35-26.658 18.526-38.561 2.395-8.976 2.673-11.792 2.715-27.5.04-15.241-.256-18.647-2.293-26.386-2.296-8.723-9-26.088-9.774-25.315-.216.217.329 2.151 1.213 4.297 1.096 2.665 1.195 3.507.313 2.654-.949-.918-6.776-1.25-21.926-1.25-11.349 0-20.935-.301-21.303-.669-.367-.368.12-1.605 1.084-2.75 1.711-2.032 1.705-2.043-.248-.459-5.236 4.245-6.12 4.363-36.5 4.878l-29.5.5-4.584 2.695C105.413 93.782 100 103.03 100 113.682V118h53.532c59.069 0 58.587-.048 62.502 6.19 1.614 2.571 1.989 4.497 1.684 8.629-.497 6.715-4.274 10.98-10.85 12.25-2.402.464-27.41.863-55.571.887l-51.204.044-.296 26.578-.297 26.579-3.669 3.361c-2.056 1.883-5.287 3.664-7.347 4.051-7.737 1.452-16.473-3.764-17.852-10.658-.348-1.739-.635-13.792-.638-26.786l-.006-23.625-9.244-.06c-10.594-.068-14.656-1.607-17.784-6.739-3.876-6.356-1.441-15.365 5.102-18.874C50.659 118.434 53.67 118 60.734 118H70l.006-4.75c.014-11.964 3.68-23.728 9.971-32 4.202-5.526 4.756-6.776 1.33-3M10.21 82.181c-5.527 14.807-9.152 33.154-9.192 46.518-.05 17.139 5.54 41.559 12.814 55.968 9.226 18.277 26.523 38.149 42.267 48.56 39.654 26.223 84.882 29.556 126.453 9.319 43.775-21.311 71.588-65.775 71.417-114.174-.034-9.336-2.556-25.932-5.415-35.622-1.768-5.996-2.976-7.751-2.064-3 .426 2.217.25 2.071-.905-.75-1.717-4.193-1.953-6.07-.504-4 1.544 2.206.063-2.816-1.769-6-.898-1.559-1.184-1.747-.762-.5 1.71 5.053 1.78 5.822.453 5.002-.74-.457-1.067-.417-.751.093.309.498-1.309.905-3.596.905-3.084 0-4.469-.516-5.371-2-1.908-3.142-1.499-1.371 1.24 5.37 6.643 16.348 9.158 40.667 6.115 59.139-6.379 38.728-32.069 71.762-67.785 87.159-55.219 23.807-119.582.742-147.027-52.687-15.42-30.019-17.043-67.325-4.194-96.38 1.316-2.975 2.222-5.579 2.014-5.787-.209-.208-.942.981-1.629 2.641-.688 1.661-1.569 2.823-1.957 2.583-.388-.24-2.586-.547-4.884-.682-4.426-.262-4.825-.778-3.097-4.007.595-1.111.864-2.238.598-2.504-.266-.265-1.377 1.911-2.469 4.836M181.5 84c-.34.55-.168 1 .382 1s1.278-.45 1.618-1c.34-.55.168-1-.382-1s-1.278.45-1.618 1m-171.421.668c-.043.643-.338 1.993-.655 3-.547 1.741-.518 1.744.571.044.631-.983.925-2.333.655-3-.355-.875-.514-.887-.571-.044m113.734 2.015c.721.289 1.584.253 1.916-.079.332-.332-.258-.568-1.312-.525-1.165.048-1.402.285-.604.604" fill="#1976D2" fill-rule="evenodd"/><path fill-opacity=".104" d="M115.5 2.907c-2.791.331 1.849.63 10.5.677 8.525.047 18.359.638 21.854 1.313 8.717 1.685 8.927.668.269-1.301-7.009-1.594-22.271-1.916-32.623-.689m-16 2.565c-5.263 1.735-3.475 1.773 4 .087 3.844-.868 4.922-1.363 3-1.38-1.65-.014-4.8.568-7 1.293m57.313 1.211c.721.289 1.584.253 1.916-.079.332-.332-.258-.568-1.312-.525-1.165.048-1.402.285-.604.604M161.5 8c1.1.473 2.675.859 3.5.859.945 0 .761-.317-.5-.859-1.1-.473-2.675-.859-3.5-.859-.945 0-.761.317.5.859m9.5 3c.825.533 1.95.969 2.5.969s.325-.436-.5-.969c-.825-.533-1.95-.969-2.5-.969s-.325.436.5.969m5 2c.825.533 1.95.969 2.5.969s.325-.436-.5-.969c-.825-.533-1.95-.969-2.5-.969s-.325.436.5.969M69.049 159c-.203 6.325-.551 10.037-.772 8.25l-.404-3.25H45.937c-16.84 0-21.956.29-22.018 1.25-.045.688-.739-.1-1.543-1.75l-1.462-3 .617 3c2.485 12.086 15.022 32.364 27.836 45.024 18.899 18.672 40.564 28.936 66.962 31.721 44.115 4.655 87.645-18.203 109.018-57.245 3.712-6.781 8.704-19.155 8.583-21.273-.039-.675-.718.539-1.509 2.698-1.759 4.804-2.012 5.082-2.786 3.066-.355-.924-.196-1.338.376-.984.544.336.989-.091.989-.948 0-1.396-6.693-1.559-63.917-1.559-50.197 0-64.025.268-64.421 1.25-.277.688-.6.125-.717-1.25-.485-5.711-1.776 8.427-1.857 20.346-.1 14.611-.96 17.09-7.134 20.56-6.811 3.827-15.844 1.954-20.383-4.226-1.926-2.624-2.109-4.579-2.612-28-.382-17.784-.65-21.802-.91-13.68m-54.97-6.417c.048 1.165.285 1.402.604.605.289-.722.253-1.585-.079-1.917-.332-.332-.568.258-.525 1.312M15.141 157c0 .825.386 2.4.859 3.5.542 1.261.859 1.445.859.5 0-.825-.386-2.4-.859-3.5-.542-1.261-.859-1.445-.859-.5m223.938.583c.048 1.165.285 1.402.604.605.289-.722.253-1.585-.079-1.917-.332-.332-.568.258-.525 1.312m-1.967 6.438c-.663 2.211-.887 4.573-.498 5.25.389.676.342.899-.104.495s-3.106 3.896-5.911 9.554c-6.368 12.849-13.185 22.087-23.86 32.335-19.088 18.325-41.644 28.743-68.236 31.515-49.654 5.175-97.391-23.795-117.677-71.415-2.168-5.09-3.703-7.905-3.411-6.255.491 2.768.445 2.826-.594.75-1.363-2.723-7.47-3.385-6.439-.698.327.854.208 1.313-.265 1.02-.473-.292-.814 1.222-.757 3.365.056 2.143.443 3.685.859 3.427.417-.257.514.169.215.947-.776 2.023 8.215 19.089 15.086 28.632 11.737 16.3 31.155 32.445 48.741 40.522 41.131 18.893 89.499 14.487 125.943-11.474 16.808-11.973 32.575-30.79 41.439-49.455 3.28-6.906 5.485-17.351 3.389-16.056-.454.281-2.245.227-3.979-.119-2.862-.573-3.095-.895-2.523-3.496.934-4.256-.033-3.467-1.418 1.156m4.274 1.175c.998.559 2.188.629 2.659.158.471-.472-.338-.924-1.806-1.011-2.287-.136-2.406-.016-.853.853" fill="#1976D2" fill-rule="evenodd"/></svg>